<?xml version="1.0" encoding="utf-8"?><svg xml:space="preserve" viewBox="0 0 100 100" y="0px" x="0px" xmlns:xlink="http://www.w3.org/1999/xlink" xmlns="http://www.w3.org/2000/svg" id="圖層_1" version="1.1" width="200px" height="200px" style="width:100%;height:100%;background-size:initial;background-repeat-y:initial;background-repeat-x:initial;background-position-y:initial;background-position-x:initial;background-origin:initial;background-color:initial;background-clip:initial;background-attachment:initial;animation-play-state:paused" ><g class="ldl-scale" style="transform-origin:50% 50%;transform:rotate(0deg) scale(0.8, 0.8);animation-play-state:paused" ><circle r="7.6" cy="40.08" cx="69.63" stroke-miterlimit="10" stroke-linejoin="round" stroke-linecap="round" stroke-width="3" stroke="#333333" fill="#E0E0E0" style="stroke:rgb(245, 244, 250);fill:rgb(102, 115, 149);animation-play-state:paused" ></circle>
<path d="M85.62,47.91c0-3.83-3.1-6.93-6.93-6.93c-1.99,0-3.79,0.85-5.05,2.2c-1.57-1.97-3.87-3.34-6.49-3.67c0-0.03,0-0.06,0-0.09 c0-6.72-5.45-12.17-12.17-12.17c-5.8,0-10.64,4.06-11.86,9.49c-0.32-0.04-0.64-0.06-0.97-0.06c-4.4,0-7.97,3.57-7.97,7.97 c0,4.4,3.57,7.97,7.97,7.97c2.51,0,4.75-1.17,6.21-2.99c1.91,1.24,4.17,1.96,6.62,1.96c0.45,0,0.9-0.03,1.34-0.08 c1.01,4.37,4.92,7.63,9.6,7.63c1.08,0,2.11-0.19,3.08-0.51c1.11,0.82,2.47,1.31,3.96,1.31c3.16,0,5.8-2.2,6.48-5.15 C82.9,54.43,85.62,51.49,85.62,47.91z" stroke-miterlimit="10" stroke-linejoin="round" stroke-linecap="round" stroke-width="3" stroke="#333333" fill="#FFFFFF" style="stroke:rgb(245, 244, 250);fill:rgb(41, 38, 100);animation-play-state:paused" ></path>
<circle r="7.6" cy="49.08" cx="50.81" stroke-miterlimit="10" stroke-linejoin="round" stroke-linecap="round" stroke-width="3" stroke="#333333" fill="#E0E0E0" style="stroke:rgb(245, 244, 250);fill:rgb(102, 115, 149);animation-play-state:paused" ></circle>
<path d="M48.29,56.08l12.18,1.01l22.83-3c4.24-0.56,7.65,3.42,6.45,7.52v0c-0.57,1.96-2.11,3.49-4.08,4.04l-32.87,7.1l-23.65-5.17 c-1.31-0.2-2.52-0.69-3.55-1.4c-2.91-1.99-4.1-5.72-3.23-9.14l1.38-5.44" stroke-miterlimit="10" stroke-linejoin="round" stroke-linecap="round" stroke-width="3" stroke="#333333" fill="#F5E6C8" style="stroke:rgb(245, 244, 250);fill:rgb(148, 169, 206);animation-play-state:paused" ></path>
<path d="M50.12,60.22l8.92-0.88c2.62-0.26,4.53-2.59,4.27-5.21l0,0c-0.26-2.62-2.59-4.53-5.21-4.27l-8.92,0.88 c-2.84-3.89-5.9-6.24-12.32-5.6c-8.67,0.86-15.18,6.82-14.53,13.32" stroke-miterlimit="10" stroke-linejoin="round" stroke-linecap="round" stroke-width="3" stroke="#333333" fill="#F5E6C8" style="stroke:rgb(245, 244, 250);fill:rgb(148, 169, 206);animation-play-state:paused" ></path>
<polyline points="10,45.13 27.88,45.13 27.88,70.19 10,70.19" stroke-miterlimit="10" stroke-linejoin="round" stroke-linecap="round" stroke-width="3" stroke="#333333" fill="#A0C8D7" style="stroke:rgb(245, 244, 250);fill:rgb(181, 204, 241);animation-play-state:paused" ></polyline>
<metadata xmlns:d="https://loading.io/stock/" style="animation-play-state:paused" ><d:name style="animation-play-state:paused" >bathroom</d:name>


<d:tags style="animation-play-state:paused" >bathroom,clean,wash,bubbles,hand,epidemic prevention</d:tags>


<d:license style="animation-play-state:paused" >by</d:license>


<d:slug style="animation-play-state:paused" >6amsei</d:slug></metadata></g><!-- generated by https://loading.io/ --></svg>